<svg xmlns="http://www.w3.org/2000/svg" viewBox="0 0 128 128" width="512" height="512"><rect width="128" height="128" rx="28" fill="#F1ECE5"></rect><g transform="translate(32,32) scale(1)"><path d="M5.66 37.6L5.39 36.1L5.2 34.59L5.1 33.06L5.08 31.54L5.15 30.02L5.31 28.5L5.55 27L5.87 25.51L6.28 24.04L6.78 22.6L7.35 21.19L8.01 19.81L8.74 18.47L9.54 17.18L10.42 15.93L11.36 14.74L12.38 13.6L13.45 12.52L14.59 11.51L15.78 10.56L17.02 9.68L18.31 8.87L19.64 8.14L21.02 7.48L22.42 6.91L23.86 6.41L25.32 6L26.81 5.67L28.31 5.42L29.82 5.27L31.33 5.19L32.85 5.21L34.37 5.31L35.87 5.49L37.36 5.77L38.84 6.12L40.29 6.56L41.71 7.08L43.1 7.68L44.45 8.36L45.77 9.11L47.03 9.94L48.25 10.83L49.41 11.8L50.52 12.83L51.56 13.91L52.54 15.06L53.45 16.26L54.3 17.51L55.07 18.8L55.76 20.13L56.38 21.51L56.92 22.91L57.38 24.34L57.75 25.79L58.04 27.26L58.25 28.75L58.37 30.24L58.41 31.73L58.36 33.23L58.22 34.72L58.01 36.19L57.71 37.65L57.32 39.09L56.86 40.51L56.31 41.89L55.69 43.24L55 44.55L54.23 45.82L53.39 47.04L52.48 48.21L51.51 49.32L50.48 50.38L49.39 51.37L48.25 52.3L47.06 53.17L45.82 53.96L44.54 54.68L43.22 55.32L41.87 55.89L40.49 56.38L39.09 56.79L37.67 57.12L36.23 57.37L34.78 57.53L33.33 57.61L31.88 57.61L30.43 57.53L29 57.36L27.57 57.11L29 57.29L30.44 57.38L31.88 57.39L33.32 57.32L34.74 57.17L36.16 56.94L37.56 56.63L38.93 56.24L40.28 55.78L41.6 55.24L42.89 54.63L44.14 53.95L45.34 53.21L46.5 52.39L47.62 51.52L48.68 50.58L49.68 49.59L50.63 48.54L51.51 47.44L52.33 46.3L53.09 45.11L53.77 43.88L54.39 42.62L54.93 41.33L55.4 40.01L55.79 38.66L56.1 37.3L56.34 35.92L56.5 34.54L56.59 33.15L56.59 31.75L56.52 30.36L56.36 28.98L56.14 27.61L55.83 26.25L55.45 24.92L54.99 23.61L54.46 22.33L53.87 21.08L53.2 19.87L52.46 18.7L51.67 17.57L50.81 16.49L49.89 15.46L48.91 14.49L47.88 13.57L46.81 12.71L45.68 11.91L44.52 11.18L43.31 10.52L42.08 9.92L40.81 9.4L39.51 8.95L38.19 8.57L36.85 8.27L35.5 8.04L34.14 7.89L32.77 7.82L31.4 7.82L30.03 7.9L28.67 8.06L27.33 8.3L25.99 8.6L24.68 8.99L23.39 9.45L22.13 9.97L20.9 10.57L19.71 11.24L18.56 11.97L17.45 12.77L16.39 13.63L15.38 14.54L14.42 15.52L13.52 16.54L12.67 17.61L11.89 18.73L11.18 19.89L10.53 21.09L9.95 22.32L9.43 23.59L9 24.88L8.63 26.19L8.34 27.52L8.13 28.87L7.99 30.23L7.93 31.59L7.94 32.95L8.04 34.31L8.21 35.66L8.45 37.01A1.43 1.43 0 0 1 5.66 37.6Z" fill="#0E6C85"></path><path d="M20.46 49.12L19.51 48.43L18.6 47.7L17.73 46.92L16.91 46.08L16.14 45.21L15.41 44.29L14.75 43.33L14.13 42.33L13.58 41.3L13.08 40.25L12.65 39.16L12.28 38.05L11.97 36.93L11.73 35.79L11.55 34.63L11.44 33.47L11.39 32.3L11.42 31.14L11.5 29.97L11.66 28.82L11.88 27.67L12.16 26.54L12.51 25.43L12.92 24.34L13.39 23.28L13.92 22.24L14.51 21.24L15.16 20.28L15.86 19.35L16.61 18.46L17.41 17.62L18.25 16.83L19.14 16.08L20.07 15.39L21.04 14.76L22.04 14.18L23.07 13.66L24.13 13.19L25.21 12.79L26.31 12.46L27.43 12.18L28.57 11.98L29.71 11.83L30.85 11.75L32 11.74L33.15 11.8L34.28 11.91L35.41 12.1L36.53 12.35L37.63 12.66L38.71 13.03L39.76 13.46L40.78 13.95L41.78 14.5L42.74 15.11L43.66 15.76L44.54 16.47L45.38 17.23L46.18 18.03L46.92 18.88L47.62 19.76L48.26 20.68L48.84 21.64L49.37 22.62L49.85 23.64L50.26 24.67L50.61 25.73L50.9 26.8L51.13 27.89L51.29 28.98L51.39 30.08L51.43 31.19L51.41 32.29L51.32 33.38L51.17 34.47L50.95 35.54L50.68 36.6L50.35 37.63L49.96 38.65L49.51 39.63L49.01 40.59L48.46 41.52L47.85 42.41L47.2 43.26L46.5 44.07L45.75 44.83L44.97 45.56L44.15 46.23L43.29 46.85L42.4 47.42L43.22 46.76L44.01 46.06L44.75 45.32L45.44 44.55L46.09 43.73L46.69 42.89L47.25 42.01L47.75 41.11L48.19 40.18L48.59 39.23L48.93 38.27L49.21 37.28L49.44 36.29L49.61 35.29L49.73 34.28L49.79 33.27L49.79 32.26L49.74 31.26L49.63 30.26L49.46 29.27L49.24 28.29L48.97 27.33L48.64 26.39L48.27 25.47L47.84 24.58L47.36 23.71L46.84 22.87L46.27 22.06L45.66 21.29L45.01 20.56L44.32 19.86L43.59 19.2L42.83 18.59L42.04 18.02L41.22 17.5L40.37 17.02L39.5 16.6L38.6 16.22L37.69 15.9L36.76 15.63L35.82 15.4L34.88 15.24L33.92 15.12L32.96 15.06L32 15.06L31.04 15.11L30.09 15.21L29.15 15.36L28.21 15.57L27.29 15.82L26.39 16.13L25.51 16.49L24.65 16.9L23.81 17.35L23 17.85L22.23 18.39L21.48 18.98L20.77 19.6L20.1 20.27L19.46 20.97L18.86 21.7L18.31 22.47L17.8 23.27L17.34 24.09L16.92 24.93L16.56 25.8L16.24 26.69L15.97 27.59L15.75 28.51L15.59 29.43L15.48 30.37L15.42 31.3L15.41 32.24L15.45 33.18L15.55 34.12L15.7 35.04L15.91 35.96L16.16 36.86L16.46 37.75L16.81 38.62L17.22 39.47L17.66 40.29L18.16 41.09L18.7 41.86L19.28 42.59L19.9 43.3L20.56 43.96L21.25 44.59L21.98 45.18L22.74 45.72A2.05 2.05 0 0 1 20.46 49.12Z" fill="#221E1A"></path><path d="M43.12 21.63L42.55 21.06L41.95 20.51L41.33 20L40.68 19.52L40 19.08L39.31 18.67L38.59 18.3L37.85 17.97L37.1 17.68L36.33 17.43L35.55 17.22L34.76 17.05L33.96 16.93L33.16 16.84L32.35 16.8L31.55 16.81L30.74 16.85L29.94 16.94L29.14 17.07L28.35 17.24L27.57 17.46L26.81 17.71L26.06 18.01L25.32 18.35L24.61 18.72L23.91 19.13L23.24 19.58L22.59 20.06L21.97 20.58L21.38 21.13L20.82 21.71L20.28 22.32L19.79 22.95L19.32 23.61L18.9 24.3L18.51 25L18.15 25.73L17.84 26.48L17.57 27.24L17.33 28.01L17.14 28.79L16.99 29.59L16.89 30.39L16.82 31.19L16.8 32L16.82 32.81L16.89 33.61L16.99 34.41L17.14 35.21L17.33 35.99L17.57 36.76L17.84 37.52L18.15 38.27L18.51 39L18.9 39.7L19.32 40.39L19.79 41.05L20.28 41.68L20.82 42.29L21.38 42.87L21.97 43.42L22.59 43.94L23.24 44.42L23.91 44.87L24.61 45.28L25.32 45.65L26.06 45.99L26.81 46.29L27.57 46.54L28.35 46.76L29.14 46.93L29.94 47.06L30.74 47.15L31.55 47.19L32.35 47.2L33.16 47.16L33.96 47.07L34.76 46.95L35.55 46.78L36.33 46.57L37.1 46.32L37.85 46.03L38.59 45.7L39.31 45.33L40 44.92L40.68 44.48L41.33 44L41.95 43.49L42.55 42.94L43.12 42.37A3.3 3.3 0 0 0 38.29 37.87L37.97 38.19L37.63 38.5L37.28 38.79L36.91 39.06L36.53 39.31L36.13 39.54L35.73 39.75L35.31 39.94L34.88 40.1L34.45 40.24L34.01 40.36L33.56 40.46L33.11 40.53L32.66 40.57L32.2 40.6L31.74 40.6L31.29 40.57L30.83 40.52L30.38 40.45L29.94 40.35L29.5 40.23L29.06 40.08L28.64 39.92L28.22 39.73L27.82 39.51L27.42 39.28L27.04 39.03L26.68 38.75L26.33 38.46L25.99 38.15L25.67 37.82L25.37 37.48L25.09 37.12L24.83 36.75L24.59 36.36L24.36 35.96L24.17 35.55L23.99 35.13L23.83 34.7L23.7 34.26L23.59 33.81L23.51 33.37L23.45 32.91L23.41 32.46L23.4 32L23.41 31.54L23.45 31.09L23.51 30.63L23.59 30.19L23.7 29.74L23.83 29.3L23.99 28.87L24.17 28.45L24.36 28.04L24.59 27.64L24.83 27.25L25.09 26.88L25.37 26.52L25.67 26.18L25.99 25.85L26.33 25.54L26.68 25.25L27.04 24.97L27.42 24.72L27.82 24.49L28.22 24.27L28.64 24.08L29.06 23.92L29.5 23.77L29.94 23.65L30.38 23.55L30.83 23.48L31.29 23.43L31.74 23.4L32.2 23.4L32.66 23.43L33.11 23.47L33.56 23.54L34.01 23.64L34.45 23.76L34.88 23.9L35.31 24.06L35.73 24.25L36.13 24.46L36.53 24.69L36.91 24.94L37.28 25.21L37.63 25.5L37.97 25.81L38.29 26.13A3.3 3.3 0 0 0 43.12 21.63Z" fill="#B33D0B"></path><circle cx="32" cy="32" r="2.9" fill="#B33D0B"></circle></g></svg>